<svg width="99" height="12" viewBox="0 0 99 12" fill="none" xmlns="http://www.w3.org/2000/svg">
<g clip-path="url(#clip0_49_144)">
<g style="mix-blend-mode:lighten">
<path d="M97.6288 7.65438C97.478 7.5626 97.3225 7.48117 97.1631 7.41053L96.9019 7.28219L87.7367 2.1485L86.9871 1.72497L86.8849 1.63513C86.7672 1.49903 86.6219 1.39749 86.4616 1.33933C86.3013 1.28117 86.1308 1.26817 85.965 1.30144C85.8309 1.35292 85.7085 1.43709 85.6065 1.54799C85.5044 1.65889 85.4252 1.79379 85.3744 1.94315C85.3454 2.01058 85.3112 2.07499 85.2722 2.13567C85.2279 2.18891 85.1784 2.23627 85.1246 2.27684C84.994 2.37937 84.879 2.50505 84.7839 2.64904C84.4252 2.38923 84.0448 2.16999 83.6481 1.99449C83.5459 1.99449 83.2166 1.78914 83.0008 1.99449C82.94 2.08247 82.907 2.19089 82.907 2.30251C82.907 2.41413 82.94 2.52255 83.0008 2.61053C83.1132 2.78158 83.2615 2.91831 83.4324 3.00839C83.7495 3.21685 84.0843 3.38884 84.4318 3.52176C84.3068 3.84262 84.1819 4.17631 84.0797 4.51C84.029 4.63934 84.0028 4.77923 84.0028 4.92069C84.0028 5.06216 84.029 5.20205 84.0797 5.33139C84.2917 5.71048 84.6255 5.98191 85.011 6.08861H85.1359L92.8928 10.5421L94.6078 11.4918C95.0402 11.7704 95.5073 11.9738 95.9933 12.095H96.2659C96.3986 12.1178 96.5343 12.0907 96.652 12.018L96.7997 11.8897L96.8905 11.7613C97.0878 11.4447 97.2375 11.0935 97.3335 10.7218C97.4973 10.7853 97.6568 10.8625 97.8105 10.9528L97.9127 11.017C98.1044 11.1242 98.3016 11.2184 98.5032 11.2993C98.5741 11.3189 98.6482 11.3189 98.719 11.2993C98.7702 11.2895 98.8177 11.2627 98.8553 11.2223C98.8906 11.1793 98.9177 11.1287 98.9353 11.0736C98.9529 11.0185 98.9604 10.9599 98.9575 10.9014C98.9265 10.7588 98.8594 10.6295 98.7645 10.5293C98.5535 10.3101 98.3117 10.1323 98.049 10.003L97.6288 9.78487C97.6333 9.74224 97.6333 9.69915 97.6288 9.65652C97.7196 9.39984 97.8105 9.14315 97.8786 8.88647C97.9077 8.72124 97.9077 8.55116 97.8786 8.38593C97.8922 8.25027 97.8766 8.1129 97.8331 7.98552C97.7896 7.85814 97.7195 7.74454 97.6288 7.65438V7.65438ZM96.7997 9.24583C96.7202 9.46401 96.6407 9.69503 96.5725 9.91321C96.5044 10.1314 96.5725 10.0929 96.493 10.1956C96.4195 10.4758 96.3205 10.7468 96.1978 11.0041V11.0041C95.8 10.8992 95.4176 10.7306 95.062 10.5036L85.5334 5.20305L85.2949 5.10037C85.1774 5.05569 85.0634 4.99988 84.9542 4.93353C85.1173 4.41667 85.3069 3.911 85.5221 3.41909C85.552 3.3316 85.6083 3.25887 85.6811 3.21374C85.8012 3.12112 85.9084 3.00864 85.9991 2.88005C86.104 2.7701 86.1957 2.64495 86.2716 2.50786V2.50786C86.3532 2.59084 86.445 2.66 86.5442 2.71321L87.3051 3.13674L96.459 8.27043L96.7997 8.43727L97.0268 8.55278C96.936 8.7838 96.8565 9.01481 96.777 9.24583H96.7997ZM97.1063 8.55278L97.5265 8.70679L97.1063 8.55278Z" fill="white"/>
</g>
<g style="mix-blend-mode:lighten">
<path d="M52.78 2.28286C52.3257 2.57805 52.462 3.56629 52.0986 3.92565C51.7351 4.285 51.1105 4.49035 50.8039 5.20907C49.6114 4.99089 48.4075 4.81121 47.2264 4.63153L45.3524 4.34917C45.3524 4.09249 45.3524 3.83581 45.3524 3.59196C45.3524 2.91174 45.1026 2.80907 44.6369 2.43688C44.5885 2.3789 44.5534 2.30839 44.5347 2.23153C44.4889 2.08188 44.4889 1.91915 44.5347 1.7695C44.7732 0.396234 43.5807 -0.656172 42.6608 0.486074C42.2941 1.06067 42.0812 1.74227 42.0475 2.44971L41.809 3.87431L40.378 3.65613C40.2325 3.63761 40.0862 3.68335 39.9698 3.7838C39.8534 3.88424 39.7759 4.03163 39.7534 4.19516C39.7372 4.35816 39.778 4.52186 39.8671 4.65133C39.9562 4.7808 40.0866 4.8658 40.2304 4.88821L41.6387 5.10639L41.5024 6.13313C41.5024 6.54383 41.1276 8.40479 41.4342 8.69998C41.4726 8.90529 41.5664 9.09209 41.7027 9.23461C41.839 9.37713 42.011 9.46835 42.1952 9.4957C43.0129 9.4957 42.8312 8.62297 43.0924 8.04543C43.3702 7.59569 43.7682 7.25836 44.2281 7.08286C44.7109 6.73519 45.0597 6.1943 45.2048 5.56843L47.1469 5.86361C48.2826 6.03046 49.4183 6.21014 50.554 6.42832C50.554 6.76201 50.554 7.0957 50.554 7.42939C50.5295 7.74548 50.5763 8.06344 50.6903 8.35345C50.9061 8.77698 51.3944 8.9695 51.5761 9.40586C51.7579 9.84222 51.5761 10.4968 51.8941 10.8818C52.0311 11.0057 52.2013 11.0732 52.3768 11.0732C52.5523 11.0732 52.7225 11.0057 52.8595 10.8818C53.1324 10.6219 53.3334 10.2789 53.4387 9.89356C53.7311 9.06502 53.948 8.20496 54.0861 7.32672C54.4495 7.42939 54.8016 7.55773 55.1536 7.68607C55.2489 7.7229 55.3513 7.72921 55.4495 7.70429C55.5477 7.67937 55.6379 7.6242 55.7101 7.5449C55.766 7.47169 55.8119 7.38951 55.8464 7.30105C55.8806 7.21765 55.8978 7.12667 55.8969 7.03477C55.8959 6.94286 55.8767 6.85237 55.8408 6.76992C55.8049 6.68747 55.7531 6.61515 55.6892 6.55826C55.6253 6.50138 55.551 6.46136 55.4716 6.44115C55.0628 6.27431 54.6426 6.13313 54.211 6.00479C54.2964 5.13044 54.2964 4.24812 54.211 3.37377C54.1315 2.79623 53.4273 1.85934 52.78 2.28286Z" fill="white"/>
</g>
<g style="mix-blend-mode:lighten">
<path d="M0.681645 5.62196C0.394992 5.97945 0.190239 6.41087 0.0853044 6.87849C-0.0196303 7.34611 -0.0215484 7.83567 0.0797181 8.30432C0.00702405 8.52804 -0.0175002 8.76811 0.008173 9.00468C0.0338462 9.24124 0.108979 9.4675 0.227361 9.66474C0.336391 9.86738 0.48536 10.0388 0.662656 10.1657C0.839953 10.2926 1.04079 10.3715 1.2495 10.3963C1.61972 10.8035 2.09168 11.0723 2.60153 11.1664C3.11138 11.2605 3.63451 11.1754 4.10014 10.9225C4.63259 10.5507 5.08623 10.0512 5.42892 9.4594C6.16724 8.17467 6.81653 6.82733 7.37099 5.42945C7.47672 5.29316 7.60377 5.18004 7.74577 5.09576C8.42854 4.67116 9.12979 4.28565 9.84684 3.94068C10.8375 3.53755 11.74 2.89852 12.493 2.06688C12.6573 1.871 12.7847 1.63963 12.8678 1.38667C12.908 1.23727 12.9197 1.07994 12.902 0.925077C12.8844 0.770211 12.8379 0.621332 12.7656 0.488274C12.6899 0.360142 12.5911 0.251579 12.4756 0.169731C12.3601 0.0878831 12.2306 0.0346062 12.0955 0.0134075C11.8466 -0.0205413 11.5941 0.0101862 11.3573 0.103247C10.3793 0.518533 9.48943 1.16128 8.7452 1.98988L8.31363 2.42624C7.97291 2.77277 7.65491 3.10646 7.30284 3.40164C7.11125 3.58867 6.89216 3.73636 6.65549 3.83801C6.30962 3.90358 5.9565 3.90358 5.61063 3.83801H5.02006C4.40103 3.84824 3.78454 3.92995 3.18021 4.08186C2.21751 4.26216 1.337 4.8049 0.681645 5.62196V5.62196ZM3.06664 9.95993C3.81458 9.56246 4.50711 9.04361 5.12228 8.41982L4.81564 8.95886C4.51985 9.45017 4.13213 9.86202 3.67992 10.1653C3.47038 10.2849 3.23892 10.3471 3.00418 10.3471C2.76943 10.3471 2.53797 10.2849 2.32843 10.1653C2.57901 10.1195 2.82589 10.0508 3.06664 9.95993ZM5.33806 6.58453L6.07628 6.07116C5.77025 6.52881 5.43224 6.958 5.06549 7.35458C4.40565 8.08694 3.63675 8.68215 2.79407 9.11287V9.11287C2.41634 9.32851 2.0095 9.47164 1.59021 9.5364L1.41986 9.33105L1.70379 9.12571L1.89686 8.98453L4.54307 7.08506L5.33806 6.58453ZM4.20235 5.77597C4.73129 5.55816 5.27424 5.38653 5.82642 5.2626L4.98599 5.86581C4.71342 6.04549 4.45221 6.23801 4.19099 6.43052L1.45393 8.27865L1.26086 8.41982L0.97693 8.67651L0.886073 8.35565C1.11599 7.95724 1.404 7.60574 1.73786 7.31608V7.31608C2.44865 6.62893 3.25943 6.08614 4.13421 5.7118L4.20235 5.77597ZM3.29378 4.98025C3.55933 4.90921 3.82868 4.85776 4.10014 4.82624L3.86164 4.91608C2.92219 5.31418 2.05017 5.89154 1.28357 6.62303V6.62303C1.13324 6.7601 0.989198 6.90574 0.852002 7.0594C0.93415 6.7205 1.0859 6.4083 1.29493 6.14817C1.8327 5.52603 2.53368 5.11646 3.29378 4.98025V4.98025Z" fill="white"/>
</g>
</g>
<defs>
<clipPath id="clip0_49_144">
<rect width="99" height="12" fill="white"/>
</clipPath>
</defs>
</svg>
