<svg width="40" height="40" viewBox="0 0 40 40" fill="none" xmlns="http://www.w3.org/2000/svg">
<circle cx="20" cy="20" r="20" fill="#EF8BA9"/>
<path d="M23.5 11.8333C23.5 10.905 23.1313 10.0148 22.4749 9.35838C21.8185 8.702 20.9283 8.33325 20 8.33325C19.0717 8.33325 18.1815 8.702 17.5251 9.35838C16.8687 10.0148 16.5 10.905 16.5 11.8333M23.5 11.8333H27M23.5 11.8333C23.5 12.8868 23.0345 13.8318 22.2983 14.4734M16.5 11.8333H13M16.5 11.8333C16.5 12.8868 16.9655 13.8318 17.7017 14.4734M22.3333 29.3333H24.6667C25.2855 29.3333 25.879 29.0874 26.3166 28.6498C26.7542 28.2123 27 27.6188 27 26.9999V21.1666C27 19.1926 25.9978 15.5479 22.2983 14.4734M22.3333 29.3333C22.3333 29.9521 22.0875 30.5456 21.6499 30.9832C21.2123 31.4208 20.6188 31.6666 20 31.6666C19.3812 31.6666 18.7877 31.4208 18.3501 30.9832C17.9125 30.5456 17.6667 29.9521 17.6667 29.3333M22.3333 29.3333V23.4999C22.3333 22.8811 22.0875 22.2876 21.6499 21.85C21.2123 21.4124 20.6188 21.1666 20 21.1666C19.3812 21.1666 18.7877 21.4124 18.3501 21.85C17.9125 22.2876 17.6667 22.8811 17.6667 23.4999V29.3333M17.6667 29.3333H15.3333C14.7145 29.3333 14.121 29.0874 13.6834 28.6498C13.2458 28.2123 13 27.6188 13 26.9999V21.1666C13 19.1926 14.0022 15.5479 17.7017 14.4734M22.2983 14.4734C21.6618 15.0291 20.845 15.3347 20 15.3333C19.155 15.3347 18.3382 15.0291 17.7017 14.4734" stroke="white" stroke-width="2" stroke-linecap="round" stroke-linejoin="round"/>
</svg>
