<svg width="28" height="28" viewBox="0 0 28 28" fill="none" xmlns="http://www.w3.org/2000/svg">
<path d="M17.5 5.83325C17.5 4.90499 17.1313 4.01476 16.4749 3.35838C15.8185 2.702 14.9283 2.33325 14 2.33325C13.0717 2.33325 12.1815 2.702 11.5251 3.35838C10.8687 4.01476 10.5 4.90499 10.5 5.83325M17.5 5.83325H21M17.5 5.83325C17.5 6.88675 17.0345 7.83175 16.2983 8.47342M10.5 5.83325H7M10.5 5.83325C10.5 6.88675 10.9655 7.83175 11.7017 8.47342M16.3333 23.3333H18.6667C19.2855 23.3333 19.879 23.0874 20.3166 22.6498C20.7542 22.2123 21 21.6188 21 20.9999V15.1666C21 13.1926 19.9978 9.54792 16.2983 8.47342M16.3333 23.3333C16.3333 23.9521 16.0875 24.5456 15.6499 24.9832C15.2123 25.4208 14.6188 25.6666 14 25.6666C13.3812 25.6666 12.7877 25.4208 12.3501 24.9832C11.9125 24.5456 11.6667 23.9521 11.6667 23.3333M16.3333 23.3333V17.4999C16.3333 16.8811 16.0875 16.2876 15.6499 15.85C15.2123 15.4124 14.6188 15.1666 14 15.1666C13.3812 15.1666 12.7877 15.4124 12.3501 15.85C11.9125 16.2876 11.6667 16.8811 11.6667 17.4999V23.3333M11.6667 23.3333H9.33333C8.71449 23.3333 8.121 23.0874 7.68342 22.6498C7.24583 22.2123 7 21.6188 7 20.9999V15.1666C7 13.1926 8.00217 9.54792 11.7017 8.47342M16.2983 8.47342C15.6618 9.02911 14.845 9.33467 14 9.33325C13.155 9.33467 12.3382 9.02911 11.7017 8.47342" stroke="#EF8BA9" stroke-width="2" stroke-linecap="round" stroke-linejoin="round"/>
</svg>
