<svg width="40" height="40" viewBox="0 0 40 40" fill="none" xmlns="http://www.w3.org/2000/svg">
<circle cx="20" cy="20" r="20" fill="#9378A0"/>
<g clip-path="url(#clip0_54_14)">
<path d="M30.8889 10.6667H9.1111C8.69854 10.6667 8.30288 10.8306 8.01115 11.1224C7.71943 11.4141 7.55554 11.8097 7.55554 12.2223V27.7779C7.55554 28.1904 7.71943 28.5861 8.01115 28.8778C8.30288 29.1695 8.69854 29.3334 9.1111 29.3334H30.8889C31.3014 29.3334 31.6971 29.1695 31.9888 28.8778C32.2805 28.5861 32.4444 28.1904 32.4444 27.7779V12.2223C32.4444 11.8097 32.2805 11.4141 31.9888 11.1224C31.6971 10.8306 31.3014 10.6667 30.8889 10.6667V10.6667ZM29.6911 27.7779H10.4022L15.8467 22.1467L14.7267 21.0656L9.1111 26.8756V13.4045L18.7789 23.0256C19.0703 23.3154 19.4646 23.478 19.8755 23.478C20.2865 23.478 20.6808 23.3154 20.9722 23.0256L30.8889 13.1634V26.7745L25.1644 21.0501L24.0678 22.1467L29.6911 27.7779ZM10.13 12.2223H29.6289L19.8755 21.9212L10.13 12.2223Z" fill="white"/>
</g>
<defs>
<clipPath id="clip0_54_14">
<rect width="28" height="28" fill="white" transform="translate(6 6)"/>
</clipPath>
</defs>
</svg>
