<svg width="40" height="40" viewBox="0 0 40 40" fill="none" xmlns="http://www.w3.org/2000/svg">
<circle cx="20" cy="20" r="20" fill="#9A645C"/>
<path fill-rule="evenodd" clip-rule="evenodd" d="M14.358 7.07944C15.7656 7.01464 16.2144 7.00024 19.8 7.00024C23.3856 7.00024 23.8344 7.01584 25.2408 7.07944C26.6472 7.14304 27.6072 7.36744 28.4472 7.69264C29.3268 8.02504 30.1248 8.54464 30.7848 9.21664C31.4568 9.87544 31.9752 10.6722 32.3064 11.553C32.6328 12.393 32.856 13.353 32.9208 14.757C32.9856 16.167 33 16.6158 33 20.2002C33 23.7858 32.9844 24.2346 32.9208 25.6422C32.8572 27.0462 32.6328 28.0062 32.3064 28.8462C31.9752 29.7272 31.4559 30.5253 30.7848 31.185C30.1248 31.857 29.3268 32.3754 28.4472 32.7066C27.6072 33.033 26.6472 33.2562 25.2432 33.321C23.8344 33.3858 23.3856 33.4002 19.8 33.4002C16.2144 33.4002 15.7656 33.3846 14.358 33.321C12.954 33.2574 11.994 33.033 11.154 32.7066C10.2731 32.3754 9.47496 31.8562 8.81518 31.185C8.14363 30.5258 7.62395 29.7281 7.29238 28.8474C6.96718 28.0074 6.74398 27.0474 6.67918 25.6434C6.61438 24.2334 6.59998 23.7846 6.59998 20.2002C6.59998 16.6146 6.61558 16.1658 6.67918 14.7594C6.74278 13.353 6.96718 12.393 7.29238 11.553C7.62444 10.6723 8.14452 9.87462 8.81638 9.21544C9.47522 8.54405 10.2725 8.02438 11.1528 7.69264C11.9928 7.36744 12.9528 7.14424 14.3568 7.07944H14.358ZM25.134 9.45544C23.742 9.39184 23.3244 9.37864 19.8 9.37864C16.2756 9.37864 15.858 9.39184 14.466 9.45544C13.1784 9.51424 12.48 9.72904 12.0144 9.91024C11.3988 10.1502 10.9584 10.4346 10.4964 10.8966C10.0584 11.3227 9.72139 11.8414 9.50998 12.4146C9.32878 12.8802 9.11398 13.5786 9.05518 14.8662C8.99158 16.2582 8.97838 16.6758 8.97838 20.2002C8.97838 23.7246 8.99158 24.1422 9.05518 25.5342C9.11398 26.8218 9.32878 27.5202 9.50998 27.9858C9.72118 28.5582 10.0584 29.0778 10.4964 29.5038C10.9224 29.9418 11.442 30.279 12.0144 30.4902C12.48 30.6714 13.1784 30.8862 14.466 30.945C15.858 31.0086 16.2744 31.0218 19.8 31.0218C23.3256 31.0218 23.742 31.0086 25.134 30.945C26.4216 30.8862 27.12 30.6714 27.5856 30.4902C28.2012 30.2502 28.6416 29.9658 29.1036 29.5038C29.5416 29.0778 29.8788 28.5582 30.09 27.9858C30.2712 27.5202 30.486 26.8218 30.5448 25.5342C30.6084 24.1422 30.6216 23.7246 30.6216 20.2002C30.6216 16.6758 30.6084 16.2582 30.5448 14.8662C30.486 13.5786 30.2712 12.8802 30.09 12.4146C29.85 11.799 29.5656 11.3586 29.1036 10.8966C28.6775 10.4587 28.1588 10.1217 27.5856 9.91024C27.12 9.72904 26.4216 9.51424 25.134 9.45544V9.45544ZM18.114 24.2694C19.0556 24.6614 20.104 24.7143 21.0803 24.4191C22.0566 24.1239 22.9 23.4989 23.4667 22.6509C24.0334 21.8029 24.288 20.7845 24.1872 19.7696C24.0864 18.7547 23.6364 17.8062 22.914 17.0862C22.4535 16.626 21.8966 16.2736 21.2836 16.0544C20.6705 15.8352 20.0165 15.7547 19.3686 15.8186C18.7207 15.8825 18.095 16.0893 17.5365 16.424C16.9781 16.7587 16.5009 17.2131 16.1391 17.7545C15.7774 18.2958 15.5402 18.9106 15.4446 19.5546C15.349 20.1986 15.3974 20.8558 15.5862 21.4789C15.7751 22.1019 16.0998 22.6754 16.5368 23.1579C16.9739 23.6404 17.5126 24.0201 18.114 24.2694ZM15.0024 15.4026C15.6324 14.7726 16.3804 14.2728 17.2035 13.9319C18.0267 13.5909 18.909 13.4154 19.8 13.4154C20.691 13.4154 21.5732 13.5909 22.3964 13.9319C23.2196 14.2728 23.9675 14.7726 24.5976 15.4026C25.2276 16.0327 25.7274 16.7806 26.0683 17.6038C26.4093 18.427 26.5848 19.3092 26.5848 20.2002C26.5848 21.0912 26.4093 21.9735 26.0683 22.7967C25.7274 23.6199 25.2276 24.3678 24.5976 24.9978C23.3252 26.2702 21.5994 26.9851 19.8 26.9851C18.0005 26.9851 16.2748 26.2702 15.0024 24.9978C13.73 23.7254 13.0151 21.9997 13.0151 20.2002C13.0151 18.4008 13.73 16.675 15.0024 15.4026V15.4026ZM28.0896 14.4258C28.2457 14.2786 28.3707 14.1015 28.4571 13.905C28.5436 13.7086 28.5898 13.4968 28.5929 13.2822C28.596 13.0676 28.556 12.8545 28.4754 12.6556C28.3947 12.4567 28.2749 12.2761 28.1231 12.1243C27.9714 11.9725 27.7907 11.8528 27.5918 11.7721C27.3929 11.6914 27.1799 11.6514 26.9653 11.6545C26.7507 11.6577 26.5389 11.7038 26.3424 11.7903C26.146 11.8767 25.9689 12.0017 25.8216 12.1578C25.5352 12.4615 25.3783 12.8648 25.3844 13.2822C25.3905 13.6995 25.559 14.0981 25.8542 14.3933C26.1493 14.6884 26.5479 14.8569 26.9653 14.863C27.3826 14.8691 27.7859 14.7123 28.0896 14.4258V14.4258Z" fill="white"/>
</svg>
