<svg width="40" height="40" viewBox="0 0 40 40" fill="none" xmlns="http://www.w3.org/2000/svg">
<circle cx="20" cy="20" r="20" fill="#9A645C"/>
<g clip-path="url(#clip0_54_48)">
<path fill-rule="evenodd" clip-rule="evenodd" d="M25.8663 22.5805C25.5434 22.4191 23.9607 21.6413 23.666 21.533C23.3713 21.4257 23.1568 21.3726 22.9413 21.6955C22.7268 22.0161 22.1103 22.742 21.9229 22.9565C21.7344 23.172 21.547 23.198 21.2253 23.0377C20.9035 22.8752 19.8657 22.5361 18.6361 21.4398C17.6795 20.5861 17.0328 19.532 16.8453 19.2092C16.6579 18.8875 16.8248 18.713 16.9862 18.5527C17.1313 18.4086 17.3079 18.1768 17.4693 17.9894C17.6307 17.8009 17.6838 17.6665 17.7911 17.451C17.8994 17.2365 17.8453 17.049 17.764 16.8876C17.6838 16.7262 17.0403 15.1413 16.7717 14.4967C16.5106 13.8695 16.2452 13.955 16.048 13.9442C15.8595 13.9355 15.645 13.9334 15.4305 13.9334C15.216 13.9334 14.8672 14.0135 14.5725 14.3364C14.2768 14.6581 13.4458 15.437 13.4458 17.022C13.4458 18.6058 14.5985 20.1365 14.7599 20.3521C14.9213 20.5666 17.0295 23.8188 20.2589 25.213C21.0281 25.5445 21.6272 25.7428 22.0941 25.8901C22.8654 26.136 23.5674 26.1014 24.1221 26.018C24.7396 25.9259 26.0266 25.239 26.2953 24.4872C26.5628 23.7354 26.5628 23.0908 26.4827 22.9565C26.4025 22.8221 26.188 22.742 25.8652 22.5805H25.8663ZM19.9924 30.6005H19.9881C18.07 30.6008 16.1871 30.0852 14.5368 29.1076L14.1468 28.8758L10.0929 29.9396L11.1752 25.9876L10.9206 25.5825C9.84823 23.8755 9.28074 21.9 9.28367 19.8841C9.28583 13.98 14.0893 9.17646 19.9968 9.17646C22.8568 9.17646 25.5456 10.2923 27.5671 12.316C28.5642 13.3089 29.3544 14.4897 29.8922 15.7901C30.43 17.0905 30.7046 18.4845 30.7001 19.8917C30.6979 25.7959 25.8944 30.6005 19.9924 30.6005V30.6005ZM29.1054 10.7787C27.9118 9.57721 26.4916 8.62454 24.9271 7.97591C23.3626 7.32728 21.6849 6.99558 19.9913 7.00004C12.8912 7.00004 7.1105 12.7796 7.10833 19.883C7.10504 22.1437 7.69807 24.3652 8.82758 26.3235L7 33L13.8293 31.2082C15.7185 32.2375 17.8356 32.7768 19.987 32.7769H19.9924C27.0926 32.7769 32.8733 26.9973 32.8754 19.8928C32.8807 18.1998 32.5502 16.5227 31.903 14.9582C31.2559 13.3938 30.3051 11.9733 29.1054 10.7787" fill="white"/>
</g>
<defs>
<clipPath id="clip0_54_48">
<rect width="26" height="26" fill="white" transform="translate(7 7)"/>
</clipPath>
</defs>
</svg>
