<svg width="30" height="30" viewBox="0 0 30 30" fill="none" xmlns="http://www.w3.org/2000/svg">
<circle cx="15" cy="15" r="15" fill="white"/>
<path fill-rule="evenodd" clip-rule="evenodd" d="M11.5185 4.5594C12.5742 4.5108 12.9108 4.5 15.6 4.5C18.2892 4.5 18.6258 4.5117 19.6806 4.5594C20.7354 4.6071 21.4554 4.7754 22.0854 5.0193C22.7451 5.2686 23.3436 5.6583 23.8386 6.1623C24.3426 6.6564 24.7314 7.254 24.9798 7.9146C25.2246 8.5446 25.392 9.2646 25.4406 10.3176C25.4892 11.3751 25.5 11.7117 25.5 14.4C25.5 17.0892 25.4883 17.4258 25.4406 18.4815C25.3929 19.5345 25.2246 20.2545 24.9798 20.8845C24.7314 21.5452 24.3419 22.1438 23.8386 22.6386C23.3436 23.1426 22.7451 23.5314 22.0854 23.7798C21.4554 24.0246 20.7354 24.192 19.6824 24.2406C18.6258 24.2892 18.2892 24.3 15.6 24.3C12.9108 24.3 12.5742 24.2883 11.5185 24.2406C10.4655 24.1929 9.74548 24.0246 9.11548 23.7798C8.45481 23.5314 7.85622 23.1419 7.36138 22.6386C6.85772 22.1442 6.46796 21.5459 6.21928 20.8854C5.97538 20.2554 5.80798 19.5354 5.75938 18.4824C5.71078 17.4249 5.69998 17.0883 5.69998 14.4C5.69998 11.7108 5.71168 11.3742 5.75938 10.3194C5.80708 9.2646 5.97538 8.5446 6.21928 7.9146C6.46833 7.25407 6.85839 6.65578 7.36228 6.1614C7.85642 5.65785 8.45441 5.2681 9.11458 5.0193C9.74458 4.7754 10.4646 4.608 11.5176 4.5594H11.5185ZM19.6005 6.3414C18.5565 6.2937 18.2433 6.2838 15.6 6.2838C12.9567 6.2838 12.6435 6.2937 11.5995 6.3414C10.6338 6.3855 10.11 6.5466 9.76078 6.6825C9.29908 6.8625 8.96878 7.0758 8.62228 7.4223C8.29382 7.74185 8.04104 8.13085 7.88248 8.5608C7.74658 8.91 7.58548 9.4338 7.54138 10.3995C7.49368 11.4435 7.48378 11.7567 7.48378 14.4C7.48378 17.0433 7.49368 17.3565 7.54138 18.4005C7.58548 19.3662 7.74658 19.89 7.88248 20.2392C8.04088 20.6685 8.29378 21.0582 8.62228 21.3777C8.94178 21.7062 9.33148 21.9591 9.76078 22.1175C10.11 22.2534 10.6338 22.4145 11.5995 22.4586C12.6435 22.5063 12.9558 22.5162 15.6 22.5162C18.2442 22.5162 18.5565 22.5063 19.6005 22.4586C20.5662 22.4145 21.09 22.2534 21.4392 22.1175C21.9009 21.9375 22.2312 21.7242 22.5777 21.3777C22.9062 21.0582 23.1591 20.6685 23.3175 20.2392C23.4534 19.89 23.6145 19.3662 23.6586 18.4005C23.7063 17.3565 23.7162 17.0433 23.7162 14.4C23.7162 11.7567 23.7063 11.4435 23.6586 10.3995C23.6145 9.4338 23.4534 8.91 23.3175 8.5608C23.1375 8.0991 22.9242 7.7688 22.5777 7.4223C22.2581 7.09386 21.8691 6.84109 21.4392 6.6825C21.09 6.5466 20.5662 6.3855 19.6005 6.3414V6.3414ZM14.3355 17.4519C15.0417 17.7459 15.828 17.7855 16.5602 17.5641C17.2924 17.3428 17.925 16.874 18.35 16.238C18.775 15.602 18.966 14.8382 18.8904 14.077C18.8148 13.3158 18.4773 12.6045 17.9355 12.0645C17.5901 11.7193 17.1725 11.455 16.7127 11.2906C16.2529 11.1262 15.7624 11.0658 15.2764 11.1138C14.7905 11.1617 14.3212 11.3168 13.9024 11.5678C13.4836 11.8189 13.1257 12.1597 12.8544 12.5657C12.5831 12.9717 12.4052 13.4328 12.3334 13.9158C12.2617 14.3988 12.298 14.8917 12.4397 15.359C12.5813 15.8263 12.8248 16.2563 13.1526 16.6182C13.4804 16.9802 13.8844 17.2649 14.3355 17.4519ZM12.0018 10.8018C12.4743 10.3293 13.0353 9.95445 13.6527 9.69873C14.27 9.443 14.9317 9.31138 15.6 9.31138C16.2682 9.31138 16.9299 9.443 17.5473 9.69873C18.1647 9.95445 18.7257 10.3293 19.1982 10.8018C19.6707 11.2743 20.0455 11.8353 20.3013 12.4527C20.557 13.07 20.6886 13.7318 20.6886 14.4C20.6886 15.0682 20.557 15.73 20.3013 16.3473C20.0455 16.9647 19.6707 17.5257 19.1982 17.9982C18.2439 18.9525 16.9496 19.4886 15.6 19.4886C14.2504 19.4886 12.9561 18.9525 12.0018 17.9982C11.0475 17.0439 10.5114 15.7496 10.5114 14.4C10.5114 13.0504 11.0475 11.7561 12.0018 10.8018V10.8018ZM21.8172 10.0692C21.9343 9.95874 22.028 9.82591 22.0929 9.67858C22.1577 9.53124 22.1923 9.37239 22.1947 9.21144C22.197 9.05048 22.167 8.89069 22.1065 8.74153C22.046 8.59237 21.9562 8.45686 21.8423 8.34304C21.7285 8.22921 21.593 8.13938 21.4439 8.07887C21.2947 8.01835 21.1349 7.98838 20.9739 7.99072C20.813 7.99307 20.6541 8.02769 20.5068 8.09253C20.3595 8.15737 20.2266 8.25111 20.1162 8.3682C19.9014 8.59593 19.7838 8.89841 19.7883 9.21144C19.7929 9.52447 19.9193 9.82339 20.1406 10.0448C20.362 10.2661 20.6609 10.3925 20.9739 10.3971C21.287 10.4016 21.5895 10.284 21.8172 10.0692V10.0692Z" fill="#FABD77"/>
</svg>
